<svg width="170" height="28" viewBox="0 0 170 28" fill="none" xmlns="http://www.w3.org/2000/svg">
<g clip-path="url(#clip0_56_3248)">
<rect width="27.792" height="27.792" rx="6" fill="#0B68F7"/>
<path d="M13.6748 6.34898L13.6758 6.34995L13.6777 6.34898L13.6768 6.34995C13.885 6.35317 14.0869 6.42218 14.252 6.54917L14.3672 6.65367C14.4733 6.76667 14.5515 6.90432 14.5938 7.05503L17.4717 17.2904L18.8877 13.5169L18.9492 13.3832C19.0208 13.2555 19.1209 13.145 19.2422 13.0609L19.3691 12.9867C19.5005 12.9225 19.6455 12.8891 19.793 12.889H42.1826C42.4391 12.8891 42.6848 12.9909 42.8662 13.1722L42.9307 13.2435C43.0717 13.4157 43.1504 13.6323 43.1504 13.8568C43.1503 14.0811 43.0716 14.2971 42.9307 14.4691L42.8662 14.5404C42.6848 14.7217 42.4391 14.8235 42.1826 14.8236H20.4639L18.2461 20.7367C18.1924 20.8798 18.1058 21.0073 17.9941 21.1097L17.875 21.2035C17.7474 21.288 17.6018 21.3404 17.4512 21.3578L17.2998 21.3636C17.147 21.3572 16.9983 21.3148 16.8662 21.2406L16.7402 21.1556C16.6202 21.0607 16.5253 20.9389 16.4619 20.8011L16.4092 20.6585L13.6123 10.7152L12.541 14.1449C12.4949 14.2926 12.4142 14.4263 12.3066 14.5355L12.1904 14.6361C12.0661 14.7275 11.9224 14.7875 11.7715 14.8119L11.6182 14.8236H-9.18262C-9.40715 14.8236 -9.62375 14.7459 -9.7959 14.6048L-9.86621 14.5404C-10.0476 14.359 -10.1503 14.1133 -10.1504 13.8568C-10.1504 13.6002 -10.0477 13.3537 -9.86621 13.1722L-9.7959 13.1078C-9.62376 12.9667 -9.40712 12.8891 -9.18262 12.889H10.9072L12.7383 7.02769L12.7959 6.88316C12.8653 6.74437 12.9677 6.6234 13.0947 6.5316L13.2275 6.45152C13.3648 6.38264 13.5169 6.34828 13.6719 6.34995L13.6729 6.34898H13.6748Z" fill="white" stroke="white" stroke-width="0.3"/>
</g>
<path d="M42.4299 22.116C40.8166 22.116 39.4306 21.7934 38.2719 21.148C37.1279 20.488 36.2479 19.564 35.6319 18.376C35.0159 17.1734 34.7079 15.758 34.7079 14.13C34.7079 12.9127 34.8839 11.82 35.2359 10.852C35.5879 9.86935 36.0939 9.03335 36.7539 8.34402C37.4139 7.64002 38.2206 7.10469 39.1739 6.73802C40.1419 6.35669 41.2272 6.16602 42.4299 6.16602C43.2366 6.16602 44.0286 6.26868 44.8059 6.47402C45.5832 6.67935 46.2652 6.97269 46.8519 7.35402C47.1599 7.54469 47.3652 7.77935 47.4679 8.05802C47.5706 8.32202 47.5926 8.58602 47.5339 8.85002C47.4752 9.09935 47.3506 9.31202 47.1599 9.48802C46.9839 9.66402 46.7566 9.76668 46.4779 9.79602C46.2139 9.81069 45.9206 9.71535 45.5979 9.51002C45.1432 9.21669 44.6519 9.00402 44.1239 8.87202C43.5959 8.74002 43.0606 8.67402 42.5179 8.67402C41.4766 8.67402 40.5966 8.88669 39.8779 9.31202C39.1592 9.73735 38.6166 10.3534 38.2499 11.16C37.8832 11.9667 37.6999 12.9567 37.6999 14.13C37.6999 15.2887 37.8832 16.2787 38.2499 17.1C38.6166 17.9214 39.1592 18.5447 39.8779 18.97C40.5966 19.3954 41.4766 19.608 42.5179 19.608C43.0752 19.608 43.6252 19.542 44.1679 19.41C44.7106 19.2634 45.2239 19.0434 45.7079 18.75C46.0306 18.5594 46.3166 18.4787 46.5659 18.508C46.8299 18.5227 47.0499 18.6107 47.2259 18.772C47.4019 18.9334 47.5192 19.1387 47.5779 19.388C47.6366 19.6227 47.6219 19.872 47.5339 20.136C47.4459 20.3854 47.2699 20.6054 47.0059 20.796C46.4192 21.2214 45.7152 21.5514 44.8939 21.786C44.0872 22.006 43.2659 22.116 42.4299 22.116ZM53.577 22.116C52.3597 22.116 51.443 21.7714 50.827 21.082C50.211 20.378 49.903 19.3514 49.903 18.002V7.59602C49.903 7.14135 50.0204 6.79668 50.255 6.56202C50.4897 6.32735 50.827 6.21002 51.267 6.21002C51.707 6.21002 52.0444 6.32735 52.279 6.56202C52.5284 6.79668 52.653 7.14135 52.653 7.59602V17.87C52.653 18.5447 52.7924 19.0434 53.071 19.366C53.3644 19.6887 53.775 19.85 54.303 19.85C54.4204 19.85 54.5304 19.85 54.633 19.85C54.7357 19.8354 54.8384 19.8207 54.941 19.806C55.1464 19.7767 55.2857 19.8354 55.359 19.982C55.4324 20.114 55.469 20.3927 55.469 20.818C55.469 21.1847 55.3957 21.4707 55.249 21.676C55.1024 21.8814 54.8604 22.006 54.523 22.05C54.3764 22.0647 54.2224 22.0794 54.061 22.094C53.8997 22.1087 53.7384 22.116 53.577 22.116ZM58.2924 22.05C57.8524 22.05 57.5151 21.918 57.2804 21.654C57.0457 21.39 56.9284 21.0234 56.9284 20.554V12.48C56.9284 11.996 57.0457 11.6294 57.2804 11.38C57.5151 11.116 57.8524 10.984 58.2924 10.984C58.7324 10.984 59.0697 11.116 59.3044 11.38C59.5537 11.6294 59.6784 11.996 59.6784 12.48V20.554C59.6784 21.0234 59.5611 21.39 59.3264 21.654C59.0917 21.918 58.7471 22.05 58.2924 22.05ZM59.3264 9.57602C59.1797 9.78135 59.0037 9.89869 58.7984 9.92802C58.5931 9.95735 58.3951 9.92068 58.2044 9.81802C58.0137 9.71535 57.8744 9.56868 57.7864 9.37802C57.7131 9.18735 57.7351 8.97469 57.8524 8.74002L59.5244 5.46202C59.6564 5.18335 59.8324 5.00735 60.0524 4.93402C60.2724 4.84602 60.4997 4.83135 60.7344 4.89002C60.9691 4.94868 61.1671 5.05868 61.3284 5.22002C61.5044 5.38135 61.6071 5.57935 61.6364 5.81402C61.6804 6.03402 61.6217 6.26135 61.4604 6.49602L59.3264 9.57602ZM63.8998 22.072C63.4598 22.072 63.1225 21.9547 62.8878 21.72C62.6532 21.4707 62.5358 21.1187 62.5358 20.664V12.348C62.5358 11.8934 62.6532 11.5487 62.8878 11.314C63.1225 11.0794 63.4525 10.962 63.8778 10.962C64.3032 10.962 64.6332 11.0794 64.8678 11.314C65.1025 11.5487 65.2198 11.8934 65.2198 12.348V13.844L64.9778 13.294C65.3005 12.5167 65.7992 11.93 66.4738 11.534C67.1632 11.1234 67.9405 10.918 68.8058 10.918C69.6712 10.918 70.3825 11.0794 70.9398 11.402C71.4972 11.7247 71.9152 12.216 72.1938 12.876C72.4725 13.5214 72.6118 14.3427 72.6118 15.34V20.664C72.6118 21.1187 72.4945 21.4707 72.2598 21.72C72.0252 21.9547 71.6878 22.072 71.2478 22.072C70.8078 22.072 70.4632 21.9547 70.2138 21.72C69.9792 21.4707 69.8618 21.1187 69.8618 20.664V15.472C69.8618 14.636 69.7005 14.0274 69.3778 13.646C69.0698 13.2647 68.5858 13.074 67.9258 13.074C67.1192 13.074 66.4738 13.3307 65.9898 13.844C65.5205 14.3427 65.2858 15.01 65.2858 15.846V20.664C65.2858 21.6027 64.8238 22.072 63.8998 22.072ZM76.769 22.05C76.329 22.05 75.9916 21.918 75.757 21.654C75.5223 21.39 75.405 21.0234 75.405 20.554V12.48C75.405 11.996 75.5223 11.6294 75.757 11.38C75.9916 11.116 76.329 10.984 76.769 10.984C77.209 10.984 77.5463 11.116 77.781 11.38C78.0303 11.6294 78.155 11.996 78.155 12.48V20.554C78.155 21.0234 78.0376 21.39 77.803 21.654C77.5683 21.918 77.2236 22.05 76.769 22.05ZM76.769 8.93802C76.2556 8.93802 75.8523 8.81335 75.559 8.56402C75.2803 8.30002 75.141 7.94069 75.141 7.48602C75.141 7.01668 75.2803 6.65735 75.559 6.40802C75.8523 6.15869 76.2556 6.03402 76.769 6.03402C77.297 6.03402 77.7003 6.15869 77.979 6.40802C78.2576 6.65735 78.397 7.01668 78.397 7.48602C78.397 7.94069 78.2576 8.30002 77.979 8.56402C77.7003 8.81335 77.297 8.93802 76.769 8.93802ZM85.9844 22.116C84.8551 22.116 83.8724 21.8887 83.0364 21.434C82.2004 20.9647 81.5551 20.3047 81.1004 19.454C80.6457 18.6034 80.4184 17.606 80.4184 16.462C80.4184 15.5967 80.5431 14.8267 80.7924 14.152C81.0564 13.4627 81.4304 12.8834 81.9144 12.414C82.3984 11.93 82.9851 11.5634 83.6744 11.314C84.3637 11.05 85.1337 10.918 85.9844 10.918C86.4684 10.918 86.9891 10.984 87.5464 11.116C88.1184 11.248 88.6537 11.468 89.1524 11.776C89.3871 11.9227 89.5411 12.0987 89.6144 12.304C89.6877 12.5094 89.7024 12.722 89.6584 12.942C89.6144 13.1474 89.5191 13.3307 89.3724 13.492C89.2404 13.6387 89.0717 13.734 88.8664 13.778C88.6611 13.8074 88.4337 13.756 88.1844 13.624C87.8617 13.4334 87.5317 13.294 87.1944 13.206C86.8571 13.1034 86.5344 13.052 86.2264 13.052C85.7424 13.052 85.3171 13.1327 84.9504 13.294C84.5837 13.4407 84.2684 13.6607 84.0044 13.954C83.7551 14.2327 83.5644 14.5847 83.4324 15.01C83.3004 15.4354 83.2344 15.9267 83.2344 16.484C83.2344 17.5694 83.4911 18.4274 84.0044 19.058C84.5324 19.674 85.2731 19.982 86.2264 19.982C86.5344 19.982 86.8497 19.938 87.1724 19.85C87.5097 19.762 87.8471 19.6227 88.1844 19.432C88.4337 19.3 88.6537 19.256 88.8444 19.3C89.0497 19.344 89.2184 19.4467 89.3504 19.608C89.4824 19.7547 89.5631 19.938 89.5924 20.158C89.6217 20.3634 89.5924 20.5687 89.5044 20.774C89.4311 20.9794 89.2844 21.148 89.0644 21.28C88.5804 21.5734 88.0671 21.786 87.5244 21.918C86.9817 22.05 86.4684 22.116 85.9844 22.116ZM91.8074 22.072C91.4554 22.072 91.1694 21.9914 90.9494 21.83C90.744 21.6687 90.6194 21.456 90.5754 21.192C90.5314 20.9134 90.5827 20.6054 90.7294 20.268L96.5374 7.39802C96.728 6.97269 96.9554 6.67202 97.2194 6.49602C97.498 6.30535 97.8134 6.21002 98.1654 6.21002C98.5027 6.21002 98.8034 6.30535 99.0674 6.49602C99.346 6.67202 99.5807 6.97269 99.7714 7.39802L105.601 20.268C105.763 20.6054 105.821 20.9134 105.777 21.192C105.733 21.4707 105.609 21.6907 105.403 21.852C105.198 21.9987 104.927 22.072 104.589 22.072C104.179 22.072 103.856 21.9767 103.621 21.786C103.401 21.5807 103.203 21.2727 103.027 20.862L101.597 17.54L102.785 18.31H93.5014L94.6894 17.54L93.2814 20.862C93.0907 21.2874 92.8927 21.5954 92.6874 21.786C92.482 21.9767 92.1887 22.072 91.8074 22.072ZM98.1214 9.44402L95.0414 16.77L94.4694 16.066H101.817L101.267 16.77L98.1654 9.44402H98.1214ZM112.669 26.076C111.877 26.076 111.107 26.0027 110.359 25.856C109.626 25.7094 108.958 25.482 108.357 25.174C108.078 25.0274 107.888 24.8514 107.785 24.646C107.697 24.4407 107.668 24.228 107.697 24.008C107.741 23.8027 107.829 23.6194 107.961 23.458C108.108 23.2967 108.284 23.1867 108.489 23.128C108.694 23.0694 108.907 23.0987 109.127 23.216C109.772 23.5387 110.381 23.744 110.953 23.832C111.54 23.9347 112.038 23.986 112.449 23.986C113.432 23.986 114.165 23.744 114.649 23.26C115.148 22.7907 115.397 22.0867 115.397 21.148V19.168H115.595C115.375 19.916 114.913 20.5174 114.209 20.972C113.52 21.412 112.735 21.632 111.855 21.632C110.887 21.632 110.044 21.412 109.325 20.972C108.606 20.5174 108.049 19.8867 107.653 19.08C107.257 18.2734 107.059 17.3347 107.059 16.264C107.059 15.4574 107.169 14.7314 107.389 14.086C107.624 13.426 107.946 12.8614 108.357 12.392C108.782 11.9227 109.288 11.5634 109.875 11.314C110.476 11.05 111.136 10.918 111.855 10.918C112.764 10.918 113.556 11.1454 114.231 11.6C114.92 12.04 115.368 12.6267 115.573 13.36L115.353 13.91V12.348C115.353 11.8934 115.47 11.5487 115.705 11.314C115.954 11.0794 116.292 10.962 116.717 10.962C117.157 10.962 117.494 11.0794 117.729 11.314C117.964 11.5487 118.081 11.8934 118.081 12.348V20.818C118.081 22.5634 117.619 23.876 116.695 24.756C115.771 25.636 114.429 26.076 112.669 26.076ZM112.603 19.542C113.175 19.542 113.666 19.41 114.077 19.146C114.488 18.882 114.803 18.508 115.023 18.024C115.258 17.5254 115.375 16.9387 115.375 16.264C115.375 15.252 115.126 14.46 114.627 13.888C114.128 13.3014 113.454 13.008 112.603 13.008C112.031 13.008 111.54 13.14 111.129 13.404C110.718 13.668 110.396 14.042 110.161 14.526C109.941 15.01 109.831 15.5894 109.831 16.264C109.831 17.276 110.08 18.0754 110.579 18.662C111.078 19.2487 111.752 19.542 112.603 19.542ZM126.232 22.116C125.015 22.116 123.966 21.8887 123.086 21.434C122.206 20.9794 121.524 20.334 121.04 19.498C120.571 18.662 120.336 17.672 120.336 16.528C120.336 15.4134 120.564 14.438 121.018 13.602C121.488 12.766 122.126 12.1134 122.932 11.644C123.754 11.16 124.685 10.918 125.726 10.918C126.489 10.918 127.171 11.0427 127.772 11.292C128.388 11.5414 128.909 11.9007 129.334 12.37C129.774 12.8394 130.104 13.4114 130.324 14.086C130.559 14.746 130.676 15.494 130.676 16.33C130.676 16.594 130.581 16.7994 130.39 16.946C130.214 17.078 129.958 17.144 129.62 17.144H122.558V15.56H128.74L128.388 15.89C128.388 15.2154 128.286 14.6507 128.08 14.196C127.89 13.7414 127.604 13.3967 127.222 13.162C126.856 12.9127 126.394 12.788 125.836 12.788C125.22 12.788 124.692 12.9347 124.252 13.228C123.827 13.5067 123.497 13.91 123.262 14.438C123.042 14.9514 122.932 15.5674 122.932 16.286V16.44C122.932 17.6427 123.211 18.5447 123.768 19.146C124.34 19.7327 125.176 20.026 126.276 20.026C126.658 20.026 127.083 19.982 127.552 19.894C128.036 19.7914 128.491 19.6227 128.916 19.388C129.224 19.212 129.496 19.1387 129.73 19.168C129.965 19.1827 130.148 19.2634 130.28 19.41C130.427 19.5567 130.515 19.74 130.544 19.96C130.574 20.1654 130.53 20.378 130.412 20.598C130.31 20.818 130.126 21.0087 129.862 21.17C129.349 21.4927 128.755 21.7347 128.08 21.896C127.42 22.0427 126.804 22.116 126.232 22.116ZM134.218 22.072C133.778 22.072 133.441 21.9547 133.206 21.72C132.972 21.4707 132.854 21.1187 132.854 20.664V12.348C132.854 11.8934 132.972 11.5487 133.206 11.314C133.441 11.0794 133.771 10.962 134.196 10.962C134.622 10.962 134.952 11.0794 135.186 11.314C135.421 11.5487 135.538 11.8934 135.538 12.348V13.844L135.296 13.294C135.619 12.5167 136.118 11.93 136.792 11.534C137.482 11.1234 138.259 10.918 139.124 10.918C139.99 10.918 140.701 11.0794 141.258 11.402C141.816 11.7247 142.234 12.216 142.512 12.876C142.791 13.5214 142.93 14.3427 142.93 15.34V20.664C142.93 21.1187 142.813 21.4707 142.578 21.72C142.344 21.9547 142.006 22.072 141.566 22.072C141.126 22.072 140.782 21.9547 140.532 21.72C140.298 21.4707 140.18 21.1187 140.18 20.664V15.472C140.18 14.636 140.019 14.0274 139.696 13.646C139.388 13.2647 138.904 13.074 138.244 13.074C137.438 13.074 136.792 13.3307 136.308 13.844C135.839 14.3427 135.604 15.01 135.604 15.846V20.664C135.604 21.6027 135.142 22.072 134.218 22.072ZM149.859 22.116C148.921 22.116 148.092 21.8887 147.373 21.434C146.669 20.9794 146.119 20.334 145.723 19.498C145.327 18.6474 145.129 17.65 145.129 16.506C145.129 15.3474 145.327 14.3574 145.723 13.536C146.119 12.7 146.669 12.0547 147.373 11.6C148.092 11.1454 148.921 10.918 149.859 10.918C150.754 10.918 151.531 11.138 152.191 11.578C152.866 12.018 153.321 12.5974 153.555 13.316H153.313V7.59602C153.313 7.14135 153.431 6.79668 153.665 6.56202C153.9 6.32735 154.237 6.21002 154.677 6.21002C155.117 6.21002 155.455 6.32735 155.689 6.56202C155.939 6.79668 156.063 7.14135 156.063 7.59602V20.664C156.063 21.1187 155.946 21.4707 155.711 21.72C155.477 21.9547 155.139 22.072 154.699 22.072C154.259 22.072 153.922 21.9547 153.687 21.72C153.453 21.4707 153.335 21.1187 153.335 20.664V18.948L153.577 19.608C153.357 20.3707 152.91 20.9794 152.235 21.434C151.561 21.8887 150.769 22.116 149.859 22.116ZM150.629 20.026C151.172 20.026 151.649 19.894 152.059 19.63C152.47 19.366 152.785 18.9774 153.005 18.464C153.24 17.936 153.357 17.2834 153.357 16.506C153.357 15.3327 153.108 14.46 152.609 13.888C152.111 13.3014 151.451 13.008 150.629 13.008C150.087 13.008 149.61 13.14 149.199 13.404C148.789 13.6534 148.466 14.042 148.231 14.57C148.011 15.0834 147.901 15.7287 147.901 16.506C147.901 17.6647 148.151 18.5447 148.649 19.146C149.148 19.7327 149.808 20.026 150.629 20.026ZM162.457 22.116C161.679 22.116 160.983 21.9694 160.367 21.676C159.765 21.368 159.289 20.9574 158.937 20.444C158.599 19.9307 158.431 19.3514 158.431 18.706C158.431 17.914 158.636 17.2907 159.047 16.836C159.457 16.3667 160.125 16.0294 161.049 15.824C161.973 15.6187 163.212 15.516 164.767 15.516H165.867V17.1H164.789C163.879 17.1 163.153 17.144 162.611 17.232C162.068 17.32 161.679 17.474 161.445 17.694C161.225 17.8994 161.115 18.1927 161.115 18.574C161.115 19.058 161.283 19.454 161.621 19.762C161.958 20.07 162.427 20.224 163.029 20.224C163.513 20.224 163.938 20.114 164.305 19.894C164.686 19.6594 164.987 19.344 165.207 18.948C165.427 18.552 165.537 18.0974 165.537 17.584V15.054C165.537 14.3207 165.375 13.7927 165.053 13.47C164.73 13.1474 164.187 12.986 163.425 12.986C162.999 12.986 162.537 13.0374 162.039 13.14C161.555 13.2427 161.041 13.4187 160.499 13.668C160.22 13.8 159.971 13.8367 159.751 13.778C159.545 13.7194 159.384 13.602 159.267 13.426C159.149 13.2354 159.091 13.03 159.091 12.81C159.091 12.59 159.149 12.3774 159.267 12.172C159.384 11.952 159.582 11.7907 159.861 11.688C160.535 11.4094 161.181 11.2114 161.797 11.094C162.427 10.9767 162.999 10.918 163.513 10.918C164.569 10.918 165.434 11.0794 166.109 11.402C166.798 11.7247 167.311 12.216 167.649 12.876C167.986 13.5214 168.155 14.3574 168.155 15.384V20.664C168.155 21.1187 168.045 21.4707 167.825 21.72C167.605 21.9547 167.289 22.072 166.879 22.072C166.468 22.072 166.145 21.9547 165.911 21.72C165.691 21.4707 165.581 21.1187 165.581 20.664V19.608H165.757C165.654 20.1214 165.449 20.5687 165.141 20.95C164.847 21.3167 164.473 21.6027 164.019 21.808C163.564 22.0134 163.043 22.116 162.457 22.116Z" fill="#0E0A2F"/>
<defs>
<clipPath id="clip0_56_3248">
<rect width="27.792" height="27.792" rx="6" fill="white"/>
</clipPath>
</defs>
</svg>
